<mxfile host="app.diagrams.net" modified="2022-09-27T14:04:31.721Z" agent="5.0 (Windows)" etag="scOidbmF9_HOlImop5pY" version="20.3.6" type="github">
  <diagram id="NJ3Z2Rpw-RBz9cCNa1Mk" name="Page-1">
    <mxGraphModel dx="2062" dy="1104" grid="1" gridSize="10" guides="1" tooltips="1" connect="1" arrows="1" fold="1" page="1" pageScale="1" pageWidth="827" pageHeight="1169" math="0" shadow="0">
      <root>
        <mxCell id="0" />
        <mxCell id="1" parent="0" />
        <mxCell id="wJC9qR62u5TN0GXE5JNp-1" value="&lt;font style=&quot;font-size: 24px;&quot;&gt;&lt;b&gt;SINGLE PLAYER MULTIPLAYER IN-GAME ACTION FLOW&lt;/b&gt;&lt;/font&gt;" style="rounded=0;whiteSpace=wrap;html=1;" vertex="1" parent="1">
          <mxGeometry x="100" y="40" width="610" height="60" as="geometry" />
        </mxCell>
        <mxCell id="wJC9qR62u5TN0GXE5JNp-2" value="MULTIPLAYER" style="rounded=0;whiteSpace=wrap;html=1;fontSize=24;" vertex="1" parent="1">
          <mxGeometry x="480" y="140" width="210" height="60" as="geometry" />
        </mxCell>
        <mxCell id="wJC9qR62u5TN0GXE5JNp-3" value="SINGLE PLAYER" style="rounded=0;whiteSpace=wrap;html=1;fontSize=24;" vertex="1" parent="1">
          <mxGeometry x="120" y="140" width="190" height="60" as="geometry" />
        </mxCell>
        <mxCell id="wJC9qR62u5TN0GXE5JNp-4" value="&lt;font style=&quot;font-size: 14px;&quot;&gt;player1 chooses side first with the &lt;i&gt;&lt;u&gt;!choose-side&lt;/u&gt;&lt;/i&gt; command leaving p2 with the other side&lt;/font&gt;" style="rounded=1;whiteSpace=wrap;html=1;fontSize=24;" vertex="1" parent="1">
          <mxGeometry x="115" y="240" width="200" height="100" as="geometry" />
        </mxCell>
        <mxCell id="wJC9qR62u5TN0GXE5JNp-5" value="Player1 can choose from !attack 1-3 or !open-bag followed by !use-item 1-6" style="rounded=1;whiteSpace=wrap;html=1;fontSize=14;" vertex="1" parent="1">
          <mxGeometry x="120" y="380" width="200" height="60" as="geometry" />
        </mxCell>
        <mxCell id="wJC9qR62u5TN0GXE5JNp-6" value="After p1&#39;s turn p2 follows the same flow" style="rounded=1;whiteSpace=wrap;html=1;fontSize=14;" vertex="1" parent="1">
          <mxGeometry x="120" y="480" width="200" height="60" as="geometry" />
        </mxCell>
        <mxCell id="wJC9qR62u5TN0GXE5JNp-7" value="Game ends when first player loses all his fighters" style="rounded=1;whiteSpace=wrap;html=1;fontSize=14;" vertex="1" parent="1">
          <mxGeometry x="115" y="585" width="210" height="55" as="geometry" />
        </mxCell>
        <mxCell id="wJC9qR62u5TN0GXE5JNp-8" value="" style="endArrow=classic;html=1;rounded=0;fontSize=14;exitX=0.5;exitY=1;exitDx=0;exitDy=0;entryX=0.5;entryY=0;entryDx=0;entryDy=0;" edge="1" parent="1" source="wJC9qR62u5TN0GXE5JNp-3" target="wJC9qR62u5TN0GXE5JNp-4">
          <mxGeometry width="50" height="50" relative="1" as="geometry">
            <mxPoint x="390" y="590" as="sourcePoint" />
            <mxPoint x="440" y="540" as="targetPoint" />
          </mxGeometry>
        </mxCell>
        <mxCell id="wJC9qR62u5TN0GXE5JNp-9" value="" style="endArrow=classic;html=1;rounded=0;fontSize=14;exitX=0.5;exitY=1;exitDx=0;exitDy=0;" edge="1" parent="1" source="wJC9qR62u5TN0GXE5JNp-4">
          <mxGeometry width="50" height="50" relative="1" as="geometry">
            <mxPoint x="390" y="590" as="sourcePoint" />
            <mxPoint x="215" y="380" as="targetPoint" />
          </mxGeometry>
        </mxCell>
        <mxCell id="wJC9qR62u5TN0GXE5JNp-10" value="" style="endArrow=classic;html=1;rounded=0;fontSize=14;exitX=0.47;exitY=1.033;exitDx=0;exitDy=0;exitPerimeter=0;entryX=0.465;entryY=0.017;entryDx=0;entryDy=0;entryPerimeter=0;" edge="1" parent="1" source="wJC9qR62u5TN0GXE5JNp-5" target="wJC9qR62u5TN0GXE5JNp-6">
          <mxGeometry width="50" height="50" relative="1" as="geometry">
            <mxPoint x="390" y="590" as="sourcePoint" />
            <mxPoint x="440" y="540" as="targetPoint" />
          </mxGeometry>
        </mxCell>
        <mxCell id="wJC9qR62u5TN0GXE5JNp-11" value="" style="endArrow=classic;html=1;rounded=0;fontSize=14;exitX=0.5;exitY=1;exitDx=0;exitDy=0;entryX=0.5;entryY=0;entryDx=0;entryDy=0;" edge="1" parent="1" source="wJC9qR62u5TN0GXE5JNp-6" target="wJC9qR62u5TN0GXE5JNp-7">
          <mxGeometry width="50" height="50" relative="1" as="geometry">
            <mxPoint x="390" y="590" as="sourcePoint" />
            <mxPoint x="440" y="540" as="targetPoint" />
          </mxGeometry>
        </mxCell>
        <mxCell id="wJC9qR62u5TN0GXE5JNp-12" value="&lt;font style=&quot;font-size: 14px;&quot;&gt;when both teams are filled with players the game starts&lt;br&gt;&lt;/font&gt;" style="rounded=1;whiteSpace=wrap;html=1;fontSize=24;" vertex="1" parent="1">
          <mxGeometry x="490" y="240" width="200" height="70" as="geometry" />
        </mxCell>
        <mxCell id="wJC9qR62u5TN0GXE5JNp-13" value="Player1 can choose from !attack 1-3 or !open-bag followed by !use-item 1-6" style="rounded=1;whiteSpace=wrap;html=1;fontSize=14;" vertex="1" parent="1">
          <mxGeometry x="495" y="370" width="200" height="70" as="geometry" />
        </mxCell>
        <mxCell id="wJC9qR62u5TN0GXE5JNp-14" value="After p1&#39;s turn first player on the second team follows the same flow" style="rounded=1;whiteSpace=wrap;html=1;fontSize=14;" vertex="1" parent="1">
          <mxGeometry x="495" y="480" width="200" height="60" as="geometry" />
        </mxCell>
        <mxCell id="wJC9qR62u5TN0GXE5JNp-15" value="Game ends when first team loses all his fighters" style="rounded=1;whiteSpace=wrap;html=1;fontSize=14;" vertex="1" parent="1">
          <mxGeometry x="490" y="585" width="210" height="55" as="geometry" />
        </mxCell>
        <mxCell id="wJC9qR62u5TN0GXE5JNp-16" value="" style="endArrow=classic;html=1;rounded=0;fontSize=14;exitX=0.5;exitY=1;exitDx=0;exitDy=0;" edge="1" parent="1" source="wJC9qR62u5TN0GXE5JNp-12">
          <mxGeometry width="50" height="50" relative="1" as="geometry">
            <mxPoint x="765" y="590" as="sourcePoint" />
            <mxPoint x="590" y="380" as="targetPoint" />
          </mxGeometry>
        </mxCell>
        <mxCell id="wJC9qR62u5TN0GXE5JNp-17" value="" style="endArrow=classic;html=1;rounded=0;fontSize=14;exitX=0.47;exitY=1.033;exitDx=0;exitDy=0;exitPerimeter=0;entryX=0.465;entryY=0.017;entryDx=0;entryDy=0;entryPerimeter=0;" edge="1" parent="1" source="wJC9qR62u5TN0GXE5JNp-13" target="wJC9qR62u5TN0GXE5JNp-14">
          <mxGeometry width="50" height="50" relative="1" as="geometry">
            <mxPoint x="765" y="590" as="sourcePoint" />
            <mxPoint x="815" y="540" as="targetPoint" />
          </mxGeometry>
        </mxCell>
        <mxCell id="wJC9qR62u5TN0GXE5JNp-18" value="" style="endArrow=classic;html=1;rounded=0;fontSize=14;exitX=0.5;exitY=1;exitDx=0;exitDy=0;entryX=0.5;entryY=0;entryDx=0;entryDy=0;" edge="1" parent="1" source="wJC9qR62u5TN0GXE5JNp-14" target="wJC9qR62u5TN0GXE5JNp-15">
          <mxGeometry width="50" height="50" relative="1" as="geometry">
            <mxPoint x="765" y="590" as="sourcePoint" />
            <mxPoint x="815" y="540" as="targetPoint" />
          </mxGeometry>
        </mxCell>
        <mxCell id="wJC9qR62u5TN0GXE5JNp-19" value="" style="endArrow=classic;html=1;rounded=0;fontSize=14;exitX=0.5;exitY=1;exitDx=0;exitDy=0;" edge="1" parent="1" source="wJC9qR62u5TN0GXE5JNp-2">
          <mxGeometry width="50" height="50" relative="1" as="geometry">
            <mxPoint x="584.5" y="210" as="sourcePoint" />
            <mxPoint x="585" y="240" as="targetPoint" />
          </mxGeometry>
        </mxCell>
      </root>
    </mxGraphModel>
  </diagram>
</mxfile>
